<svg width="401" height="401" viewBox="0 0 401 401" fill="none" xmlns="http://www.w3.org/2000/svg">
<path d="M111.761 21.7206C127.23 23.6401 142.578 28.6242 156.927 36.9085C214.322 70.0456 233.987 143.436 200.85 200.832C167.713 143.436 94.3219 123.771 36.9268 156.909C22.5989 165.181 10.6223 175.961 1.23145 188.376C5.72524 115.243 49.5209 52.7383 111.761 21.7206Z" fill="#FFD600"/>
<path d="M1.22189 188.381C10.6128 175.967 22.5894 165.186 36.9173 156.914C94.3123 123.777 167.703 143.442 200.84 200.837C134.566 200.837 80.8403 254.563 80.8403 320.837C80.8403 337.391 84.1923 353.162 90.2545 367.508C36.3605 331.678 0.840332 270.406 0.840332 200.837C0.840332 196.654 0.96876 192.5 1.22189 188.381Z" fill="#1BC47D"/>
<path d="M90.2609 367.502C84.1986 353.156 80.8467 337.385 80.8467 320.831C80.8467 254.557 134.572 200.831 200.847 200.831C167.71 258.226 187.375 331.617 244.77 364.754C259.118 373.038 274.467 378.022 289.936 379.942C263.109 393.311 232.856 400.831 200.847 400.831C159.959 400.831 121.936 388.561 90.2609 367.502Z" fill="#18A0FB"/>
<path d="M289.921 379.942C274.452 378.022 259.104 373.038 244.755 364.754C187.36 331.617 167.695 258.226 200.832 200.831C233.969 258.226 307.36 277.891 364.755 244.754C379.083 236.482 391.06 225.701 400.45 213.287C395.957 286.42 352.161 348.924 289.921 379.942Z" fill="#7B61FF"/>
<path d="M400.458 213.286C391.067 225.7 379.091 236.481 364.763 244.753C307.368 277.89 233.977 258.225 200.84 200.83C267.114 200.83 320.84 147.104 320.84 80.8299C320.84 64.2759 317.488 48.5048 311.426 34.1583C365.32 69.9884 400.84 131.261 400.84 200.83C400.84 205.013 400.711 209.166 400.458 213.286Z" fill="#F24822"/>
<path d="M311.435 34.1594C317.497 48.5059 320.849 64.277 320.849 80.831C320.849 147.105 267.123 200.831 200.849 200.831C233.986 143.436 214.321 70.045 156.926 36.9079C142.578 28.6237 127.229 23.6396 111.76 21.72C138.587 8.35069 168.84 0.830933 200.849 0.830933C241.737 0.830933 279.76 13.1008 311.435 34.1594Z" fill="#F97F0F"/>
</svg>
